# xmcd
# 
# Track frame offsets:
#     150
#     18341
#     31794
#     49036
#     67103
#     86973
#     104220
#     123937
#     142198
# 
# Disc length: 2222
# 
# Revision: 6
# Processed by: cddbd v1.5.2PL0 Copyright (c) Steve Scherf et al.
# Submitted via: BonkEnc v1.0.8
# 
DISCID=8208ac09
DTITLE=Albert King - Lovejoy
DYEAR=1971
DGENRE=Blues
TTITLE0=Honky Tonk Woman
TTITLE1=Bay Area Blues
TTITLE2=Corina Corina
TTITLE3=She Caught The Katy And Left Me A Mule To Ride
TTITLE4=For The Love Of A Woman
TTITLE5=Lovejoy, III.
TTITLE6=Everybody Wants To Go To Heaven
TTITLE7=Going Back To Iuka
TTITLE8=Like A Road Leading Home
EXTD=© 2004\nLabel: Stax Records (Fantasy Inc.]\nSCD24 8517-2\n24 BIT Remastered
EXTT0=
EXTT1=
EXTT2=
EXTT3=
EXTT4=
EXTT5=
EXTT6=
EXTT7=
EXTT8=
PLAYORDER=
